<?xml version="1.0" encoding="utf-8"?>
<!DOCTYPE svg PUBLIC "-//W3C//DTD SVG 1.1//EN" "http://www.w3.org/Graphics/SVG/1.1/DTD/svg11.dtd">
<svg class="sigma-svg" xmlns="http://www.w3.org/2000/svg" xmlns:xlink="http://www.w3.org/1999/xlink" version="1.1" width="1000px" height="1000px" x="0px" y="0px" style=""><style>.sigma-node{fill: rgb(255, 0, 0)}.c-0{fill: rgb(235, 20, 20)}.c-1{fill: rgb(240, 15, 15)}.c-2{fill: rgb(206, 49, 49)}.c-3{fill: rgb(157, 98, 98)}.c-4{fill: rgb(186, 69, 69)}.c-5{fill: rgb(147, 108, 108)}.c-6{fill: rgb(167, 88, 88)}.c-7{fill: rgb(142, 113, 113)}.c-8{fill: rgb(226, 29, 29)}.c-9{fill: rgb(250, 5, 5)}.c-10{fill: rgb(230, 25, 25)}.c-11{fill: rgb(196, 59, 59)}.c-12{fill: rgb(191, 64, 64)}.c-13{fill: rgb(177, 78, 78)}.c-14{fill: rgb(201, 54, 54)}.c-15{fill: rgb(181, 74, 74)}.c-16{fill: rgb(245, 10, 10)}.c-17{fill: rgb(221, 34, 34)}.c-18{fill: rgb(137, 118, 118)}.c-19{fill: rgb(152, 103, 103)}.c-20{fill: rgb(162, 93, 93)}.c-21{fill: rgb(172, 83, 83)}.c-22{fill: rgb(132, 123, 123)}.c-23{fill: rgb(211, 44, 44)}.c-24{fill: rgb(216, 39, 39)}.sigma-edge{stroke: #ccc}</style><g id="sigma-group-edges" class="sigma-group"><line class="sigma-edge" stroke-width="1" x1="502.74686973464765" y1="400.0002082591734" x2="379.99261180847134" y2="341.8534545046688"></line><line class="sigma-edge" stroke-width="1" x1="502.74686973464765" y1="400.0002082591734" x2="596.8463506222186" y2="482.07379139131046"></line><line class="sigma-edge" stroke-width="1" x1="142.3187647383898" y1="301.9997352375572" x2="228.16497700504266" y2="338.62307929608517"></line><line class="sigma-edge" stroke-width="1" x1="142.3187647383898" y1="301.9997352375572" x2="7.874015748031468" y2="346.38688409784424"></line><line class="sigma-edge" stroke-width="1" x1="7.874015748031468" y1="346.38688409784424" x2="142.3187647383898" y2="301.9997352375572"></line><line class="sigma-edge" stroke-width="1" x1="7.874015748031468" y1="346.38688409784424" x2="137.34858474660797" y2="441.97279114628236"></line><line class="sigma-edge" stroke-width="1" x1="7.874015748031468" y1="346.38688409784424" x2="135.48822790001122" y2="361.36229355502246"></line><line class="sigma-edge" stroke-width="1" x1="147.40559679045293" y1="658.4302249458606" x2="237.85610263079337" y2="674.5821009887785"></line><line class="sigma-edge" stroke-width="1" x1="147.40559679045293" y1="658.4302249458606" x2="128.993850731743" y2="587.3619703570216"></line><line class="sigma-edge" stroke-width="1" x1="949.3336539504162" y1="563.6125777779811" x2="992.1259842519685" y2="631.5412897930855"></line><line class="sigma-edge" stroke-width="1" x1="949.3336539504162" y1="563.6125777779811" x2="892.4631043563752" y2="642.5994522141491"></line><line class="sigma-edge" stroke-width="1" x1="949.3336539504162" y1="563.6125777779811" x2="829.2736048074407" y2="535.1773029809606"></line><line class="sigma-edge" stroke-width="1" x1="949.3336539504162" y1="563.6125777779811" x2="753.4462053487193" y2="606.2654899735119"></line><line class="sigma-edge" stroke-width="1" x1="732.6830976105681" y1="361.83181096567887" x2="690.0444988559528" y2="430.0535689730633"></line><line class="sigma-edge" stroke-width="1" x1="137.34858474660797" y1="441.97279114628236" x2="228.16497700504266" y2="338.62307929608517"></line><line class="sigma-edge" stroke-width="1" x1="137.34858474660797" y1="441.97279114628236" x2="7.874015748031468" y2="346.38688409784424"></line><line class="sigma-edge" stroke-width="1" x1="137.34858474660797" y1="441.97279114628236" x2="135.48822790001122" y2="361.36229355502246"></line><line class="sigma-edge" stroke-width="1" x1="596.8463506222186" y1="482.07379139131046" x2="555.2262408615634" y2="570.3721081655415"></line><line class="sigma-edge" stroke-width="1" x1="596.8463506222186" y1="482.07379139131046" x2="693.4161807772316" y2="513.0609781388335"></line><line class="sigma-edge" stroke-width="1" x1="596.8463506222186" y1="482.07379139131046" x2="616.0090438297868" y2="595.2073275524483"></line><line class="sigma-edge" stroke-width="1" x1="596.8463506222186" y1="482.07379139131046" x2="690.0444988559528" y2="430.0535689730633"></line><line class="sigma-edge" stroke-width="1" x1="596.8463506222186" y1="482.07379139131046" x2="429.68331904018004" y2="551.8278430626021"></line><line class="sigma-edge" stroke-width="1" x1="596.8463506222186" y1="482.07379139131046" x2="502.74686973464765" y2="400.0002082591734"></line><line class="sigma-edge" stroke-width="1" x1="780.3017426570166" y1="476.72701589819627" x2="693.4161807772316" y2="513.0609781388335"></line><line class="sigma-edge" stroke-width="1" x1="781.1932729927582" y1="693.1510518532966" x2="676.9305987370165" y2="688.4118393871265"></line><line class="sigma-edge" stroke-width="1" x1="781.1932729927582" y1="693.1510518532966" x2="860.755686789151" y2="694.4921728615667"></line><line class="sigma-edge" stroke-width="1" x1="860.755686789151" y1="694.4921728615667" x2="938.1592057937199" y2="698.0002647624428"></line><line class="sigma-edge" stroke-width="1" x1="860.755686789151" y1="694.4921728615667" x2="781.1932729927582" y2="693.1510518532966"></line><line class="sigma-edge" stroke-width="1" x1="616.0090438297868" y1="595.2073275524483" x2="753.4462053487193" y2="606.2654899735119"></line><line class="sigma-edge" stroke-width="1" x1="616.0090438297868" y1="595.2073275524483" x2="676.9305987370165" y2="688.4118393871265"></line><line class="sigma-edge" stroke-width="1" x1="616.0090438297868" y1="595.2073275524483" x2="596.8463506222186" y2="482.07379139131046"></line><line class="sigma-edge" stroke-width="1" x1="938.1592057937199" y1="698.0002647624428" x2="860.755686789151" y2="694.4921728615667"></line><line class="sigma-edge" stroke-width="1" x1="135.48822790001122" y1="361.36229355502246" x2="228.16497700504266" y2="338.62307929608517"></line><line class="sigma-edge" stroke-width="1" x1="135.48822790001122" y1="361.36229355502246" x2="7.874015748031468" y2="346.38688409784424"></line><line class="sigma-edge" stroke-width="1" x1="135.48822790001122" y1="361.36229355502246" x2="137.34858474660797" y2="441.97279114628236"></line><line class="sigma-edge" stroke-width="1" x1="128.993850731743" y1="587.3619703570216" x2="147.40559679045293" y2="658.4302249458606"></line><line class="sigma-edge" stroke-width="1" x1="128.993850731743" y1="587.3619703570216" x2="199.09160012779034" y2="529.215216602517"></line><line class="sigma-edge" stroke-width="1" x1="429.68331904018004" y1="551.8278430626021" x2="294.0075602796692" y2="513.063340559599"></line><line class="sigma-edge" stroke-width="1" x1="429.68331904018004" y1="551.8278430626021" x2="319.85056194833794" y2="626.1264728600247"></line><line class="sigma-edge" stroke-width="1" x1="429.68331904018004" y1="551.8278430626021" x2="596.8463506222186" y2="482.07379139131046"></line><line class="sigma-edge" stroke-width="1" x1="892.4631043563752" y1="642.5994522141491" x2="949.3336539504162" y2="563.6125777779811"></line><line class="sigma-edge" stroke-width="1" x1="892.4631043563752" y1="642.5994522141491" x2="992.1259842519685" y2="631.5412897930855"></line><line class="sigma-edge" stroke-width="1" x1="892.4631043563752" y1="642.5994522141491" x2="829.2736048074407" y2="535.1773029809606"></line><line class="sigma-edge" stroke-width="1" x1="892.4631043563752" y1="642.5994522141491" x2="753.4462053487193" y2="606.2654899735119"></line><line class="sigma-edge" stroke-width="1" x1="294.0075602796692" y1="513.063340559599" x2="199.09160012779034" y2="529.215216602517"></line><line class="sigma-edge" stroke-width="1" x1="294.0075602796692" y1="513.063340559599" x2="429.68331904018004" y2="551.8278430626021"></line><line class="sigma-edge" stroke-width="1" x1="199.09160012779034" y1="529.215216602517" x2="128.993850731743" y2="587.3619703570216"></line><line class="sigma-edge" stroke-width="1" x1="199.09160012779034" y1="529.215216602517" x2="294.0075602796692" y2="513.063340559599"></line><line class="sigma-edge" stroke-width="1" x1="555.2262408615634" y1="570.3721081655415" x2="596.8463506222186" y2="482.07379139131046"></line><line class="sigma-edge" stroke-width="1" x1="992.1259842519685" y1="631.5412897930855" x2="892.4631043563752" y2="642.5994522141491"></line><line class="sigma-edge" stroke-width="1" x1="992.1259842519685" y1="631.5412897930855" x2="949.3336539504162" y2="563.6125777779811"></line><line class="sigma-edge" stroke-width="1" x1="228.16497700504266" y1="338.62307929608517" x2="305.69398201104866" y2="435.5343355535929"></line><line class="sigma-edge" stroke-width="1" x1="228.16497700504266" y1="338.62307929608517" x2="142.3187647383898" y2="301.9997352375572"></line><line class="sigma-edge" stroke-width="1" x1="228.16497700504266" y1="338.62307929608517" x2="137.34858474660797" y2="441.97279114628236"></line><line class="sigma-edge" stroke-width="1" x1="228.16497700504266" y1="338.62307929608517" x2="135.48822790001122" y2="361.36229355502246"></line><line class="sigma-edge" stroke-width="1" x1="228.16497700504266" y1="338.62307929608517" x2="379.99261180847134" y2="341.8534545046688"></line><line class="sigma-edge" stroke-width="1" x1="676.9305987370165" y1="688.4118393871265" x2="781.1932729927582" y2="693.1510518532966"></line><line class="sigma-edge" stroke-width="1" x1="676.9305987370165" y1="688.4118393871265" x2="616.0090438297868" y2="595.2073275524483"></line><line class="sigma-edge" stroke-width="1" x1="676.9305987370165" y1="688.4118393871265" x2="753.4462053487193" y2="606.2654899735119"></line><line class="sigma-edge" stroke-width="1" x1="379.99261180847134" y1="341.8534545046688" x2="228.16497700504266" y2="338.62307929608517"></line><line class="sigma-edge" stroke-width="1" x1="379.99261180847134" y1="341.8534545046688" x2="502.74686973464765" y2="400.0002082591734"></line><line class="sigma-edge" stroke-width="1" x1="237.85610263079337" y1="674.5821009887785" x2="319.85056194833794" y2="626.1264728600247"></line><line class="sigma-edge" stroke-width="1" x1="237.85610263079337" y1="674.5821009887785" x2="147.40559679045293" y2="658.4302249458606"></line><line class="sigma-edge" stroke-width="1" x1="693.4161807772316" y1="513.0609781388335" x2="780.3017426570166" y2="476.72701589819627"></line><line class="sigma-edge" stroke-width="1" x1="693.4161807772316" y1="513.0609781388335" x2="829.2736048074407" y2="535.1773029809606"></line><line class="sigma-edge" stroke-width="1" x1="693.4161807772316" y1="513.0609781388335" x2="753.4462053487193" y2="606.2654899735119"></line><line class="sigma-edge" stroke-width="1" x1="693.4161807772316" y1="513.0609781388335" x2="596.8463506222186" y2="482.07379139131046"></line><line class="sigma-edge" stroke-width="1" x1="690.0444988559528" y1="430.0535689730633" x2="596.8463506222186" y2="482.07379139131046"></line><line class="sigma-edge" stroke-width="1" x1="690.0444988559528" y1="430.0535689730633" x2="732.6830976105681" y2="361.83181096567887"></line><line class="sigma-edge" stroke-width="1" x1="829.2736048074407" y1="535.1773029809606" x2="753.4462053487193" y2="606.2654899735119"></line><line class="sigma-edge" stroke-width="1" x1="829.2736048074407" y1="535.1773029809606" x2="949.3336539504162" y2="563.6125777779811"></line><line class="sigma-edge" stroke-width="1" x1="829.2736048074407" y1="535.1773029809606" x2="892.4631043563752" y2="642.5994522141491"></line><line class="sigma-edge" stroke-width="1" x1="829.2736048074407" y1="535.1773029809606" x2="693.4161807772316" y2="513.0609781388335"></line><line class="sigma-edge" stroke-width="1" x1="753.4462053487193" y1="606.2654899735119" x2="829.2736048074407" y2="535.1773029809606"></line><line class="sigma-edge" stroke-width="1" x1="753.4462053487193" y1="606.2654899735119" x2="676.9305987370165" y2="688.4118393871265"></line><line class="sigma-edge" stroke-width="1" x1="753.4462053487193" y1="606.2654899735119" x2="892.4631043563752" y2="642.5994522141491"></line><line class="sigma-edge" stroke-width="1" x1="753.4462053487193" y1="606.2654899735119" x2="949.3336539504162" y2="563.6125777779811"></line><line class="sigma-edge" stroke-width="1" x1="753.4462053487193" y1="606.2654899735119" x2="616.0090438297868" y2="595.2073275524483"></line><line class="sigma-edge" stroke-width="1" x1="753.4462053487193" y1="606.2654899735119" x2="693.4161807772316" y2="513.0609781388335"></line><line class="sigma-edge" stroke-width="1" x1="305.69398201104866" y1="435.5343355535929" x2="228.16497700504266" y2="338.62307929608517"></line><line class="sigma-edge" stroke-width="1" x1="319.85056194833794" y1="626.1264728600247" x2="237.85610263079337" y2="674.5821009887785"></line><line class="sigma-edge" stroke-width="1" x1="319.85056194833794" y1="626.1264728600247" x2="429.68331904018004" y2="551.8278430626021"></line></g><g id="sigma-group-nodes" class="sigma-group"><circle class="sigma-node" cx="596.8463506222186" cy="482.07379139131046" r="8"></circle><circle class="sigma-node c-0" cx="429.68331904018004" cy="551.8278430626021" r="8"></circle><circle class="sigma-node c-1" cx="502.74686973464765" cy="400.0002082591734" r="8"></circle><circle class="sigma-node c-2" cx="319.85056194833794" cy="626.1264728600247" r="8"></circle><circle class="sigma-node c-3" cx="305.69398201104866" cy="435.5343355535929" r="8"></circle><circle class="sigma-node c-4" cx="237.85610263079337" cy="674.5821009887785" r="8"></circle><circle class="sigma-node c-5" cx="142.3187647383898" cy="301.9997352375572" r="8"></circle><circle class="sigma-node c-6" cx="147.40559679045293" cy="658.4302249458606" r="8"></circle><circle class="sigma-node c-6" cx="128.993850731743" cy="587.3619703570216" r="8"></circle><circle class="sigma-node c-7" cx="137.34858474660797" cy="441.97279114628236" r="8"></circle><circle class="sigma-node c-8" cx="693.4161807772316" cy="513.0609781388335" r="8"></circle><circle class="sigma-node c-9" cx="555.2262408615634" cy="570.3721081655415" r="8"></circle><circle class="sigma-node c-10" cx="616.0090438297868" cy="595.2073275524483" r="8"></circle><circle class="sigma-node c-11" cx="753.4462053487193" cy="606.2654899735119" r="8"></circle><circle class="sigma-node c-12" cx="829.2736048074407" cy="535.1773029809606" r="8"></circle><circle class="sigma-node c-13" cx="949.3336539504162" cy="563.6125777779811" r="8"></circle><circle class="sigma-node c-14" cx="676.9305987370165" cy="688.4118393871265" r="8"></circle><circle class="sigma-node c-15" cx="781.1932729927582" cy="693.1510518532966" r="8"></circle><circle class="sigma-node c-16" cx="690.0444988559528" cy="430.0535689730633" r="8"></circle><circle class="sigma-node c-17" cx="732.6830976105681" cy="361.83181096567887" r="8"></circle><circle class="sigma-node c-13" cx="892.4631043563752" cy="642.5994522141491" r="8"></circle><circle class="sigma-node c-18" cx="938.1592057937199" cy="698.0002647624428" r="8"></circle><circle class="sigma-node c-19" cx="860.755686789151" cy="694.4921728615667" r="8"></circle><circle class="sigma-node c-20" cx="992.1259842519685" cy="631.5412897930855" r="8"></circle><circle class="sigma-node c-21" cx="228.16497700504266" cy="338.62307929608517" r="8"></circle><circle class="sigma-node c-22" cx="7.874015748031468" cy="346.38688409784424" r="8"></circle><circle class="sigma-node c-7" cx="135.48822790001122" cy="361.36229355502246" r="8"></circle><circle class="sigma-node c-23" cx="379.99261180847134" cy="341.8534545046688" r="8"></circle><circle class="sigma-node c-2" cx="294.0075602796692" cy="513.063340559599" r="8"></circle><circle class="sigma-node c-4" cx="199.09160012779034" cy="529.215216602517" r="8"></circle><circle class="sigma-node c-24" cx="780.3017426570166" cy="476.72701589819627" r="8"></circle></g></svg>